#!OML:ASF G:\JayActor3\Patient Classification 1\Patient 1\Session 5\male.ASF
:FULLY-SPECIFIED
:DEGREES
1158
root -50.2915 16.9076 -5.16477 -886.943 86.3194 -909.375
lowerback 28.5124 -1.69362 1.84937
upperback 6.79992 -1.11649 -0.984243
thorax -8.16957 -0.306012 -1.81743
lowerneck 6.73415 -0.901111 0.574478
upperneck -18.5834 -0.298633 3.17666
head -6.76421 -0.316616 0.932141
rclavicle -1.19271e-014 -2.60408e-014
rhumerus -28.1047 3.77996 -87.977
rradius 36.1326
rwrist -3.05061
rhand -21.0455 -6.78984
rfingers 7.12502
rthumb 5.33038 -36.7028
lclavicle -1.19271e-014 -2.60408e-014
lhumerus -28.8195 -8.11638 87.868
lradius 36.0058
lwrist 23.4404
lhand -19.6251 11.5438
lfingers 7.12502
lthumb 6.70174 41.4178
rfemur -48.9882 3.93386 24.1187
rtibia 41.6398
rfoot -19.1184 -11.4392
rtoes 26.6928
lfemur -51.4186 7.01439 -22.773
ltibia 78.5792
lfoot -9.80814 10.6044
ltoes -16.9609
1159
root -50.3572 16.9025 -5.17195 -887.399 86.3265 -909.89
lowerback 28.4803 -1.69919 1.83733
upperback 6.79714 -1.12902 -0.98857
thorax -8.15743 -0.312067 -1.81105
lowerneck 6.71209 -0.891646 0.585184
upperneck -18.5753 -0.286503 3.16487
head -6.75799 -0.310105 0.925434
rclavicle 1.75924e-014 1.81888e-014
rhumerus -28.0083 3.78054 -87.9689
rradius 36.073
rwrist -2.96987
rhand -21.1168 -6.69763
rfingers 7.12502
rthumb 5.26154 -36.6123
lclavicle 1.75924e-014 1.81888e-014
lhumerus -28.7555 -8.14911 87.8387
lradius 35.9859
lwrist 23.4366
lhand -19.5934 11.6116
lfingers 7.12502
lthumb 6.73234 41.4846
rfemur -49.3439 4.00722 23.9864
rtibia 41.6625
rfoot -18.8747 -11.6092
rtoes 26.7927
lfemur -50.7128 7.02014 -22.8915
ltibia 77.8435
lfoot -10.173 10.8299
ltoes -16.6108
1160
root -50.4233 16.8953 -5.17938 -887.799 86.3314 -910.35
lowerback 28.4483 -1.70174 1.83813
upperback 6.79095 -1.13494 -0.998307
thorax -8.14924 -0.315434 -1.8204
lowerneck 6.70817 -0.885908 0.610745
upperneck -18.566 -0.276748 3.15745
head -6.7546 -0.306451 0.917944
rclavicle 3.27995e-015 1.2921e-015
rhumerus -27.9358 3.73892 -87.9625
rradius 36.071
rwrist -2.9148
rhand -21.125 -6.66601
rfingers 7.12502
rthumb 5.25368 -36.5809
lclavicle 3.27995e-015 1.2921e-015
lhumerus -28.7045 -8.21423 87.8109
lradius 35.9736
lwrist 23.4325
lhand -19.5831 11.6237
lfingers 7.12502
lthumb 6.74231 41.4964
rfemur -49.7147 4.08618 23.8524
rtibia 41.7061
rfoot -18.6464 -11.7688
rtoes 26.8976
lfemur -50.0133 7.01451 -23.0018
ltibia 77.069
lfoot -10.5259 10.97
ltoes -16.4405
1161
root -50.4895 16.8867 -5.1871 -888.06 86.3347 -910.667
lowerback 28.4228 -1.7065 1.85088
upperback 6.78501 -1.14018 -1.00954
thorax -8.14419 -0.318632 -1.83857
lowerneck 6.71007 -0.88181 0.649697
upperneck -18.5603 -0.268975 3.14059
head -6.75348 -0.304 0.905397
rclavicle 8.05078e-015 1.81888e-014
rhumerus -27.8796 3.68571 -87.9623
rradius 36.1106
rwrist -2.86673
rhand -21.1286 -6.64055
rfingers 7.12502
rthumb 5.25022 -36.5555
lclavicle 8.05078e-015 1.81888e-014
lhumerus -28.6605 -8.29092 87.7832
lradius 35.9717
lwrist 23.4306
lhand -19.591 11.5856
lfingers 7.12502
lthumb 6.73468 41.4585
rfemur -50.0909 4.16724 23.7251
rtibia 41.7664
rfoot -18.4358 -11.9149
rtoes 27.019
lfemur -49.3199 7.00142 -23.0979
ltibia 76.2622
lfoot -10.8794 11.0435
ltoes -16.3916
1162
root -50.5557 16.8769 -5.19526 -888.236 86.3373 -910.896
lowerback 28.4039 -1.71632 1.8705
upperback 6.7793 -1.14971 -1.02138
thorax -8.14241 -0.323921 -1.85987
lowerneck 6.733 -0.884633 0.686044
upperneck -18.5748 -0.268795 3.13096
head -6.76244 -0.30599 0.896437
rclavicle -7.25564e-015 -2.28602e-015
rhumerus -27.8327 3.63353 -87.9664
rradius 36.1977
rwrist -2.87955
rhand -21.0672 -6.67657
rfingers 7.12502
rthumb 5.30942 -36.5901
lclavicle -7.25564e-015 -2.28602e-015
lhumerus -28.6272 -8.36048 87.7554
lradius 35.9865
lwrist 23.4322
lhand -19.6226 11.5198
lfingers 7.12502
lthumb 6.70419 41.3937
rfemur -50.4698 4.24232 23.6037
rtibia 41.8392
rfoot -18.2414 -12.0411
rtoes 27.1577
lfemur -48.6243 6.9819 -23.1851
ltibia 75.4278
lfoot -11.2372 11.08
ltoes -16.4369
